<svg id="visual" viewBox="0 0 900 600" width="900" height="600" xmlns="http://www.w3.org/2000/svg" xmlns:xlink="http://www.w3.org/1999/xlink" version="1.1"><rect x="0" y="0" width="900" height="600" fill="#c6dfdd"></rect><path d="M0 569L7.8 568C15.7 567 31.3 565 47.2 563.2C63 561.3 79 559.7 94.8 563C110.7 566.3 126.3 574.7 142 578C157.7 581.3 173.3 579.7 189.2 575.8C205 572 221 566 236.8 562.5C252.7 559 268.3 558 284.2 561.5C300 565 316 573 331.8 572C347.7 571 363.3 561 379 554.7C394.7 548.3 410.3 545.7 426.2 549C442 552.3 458 561.7 473.8 570.5C489.7 579.3 505.3 587.7 521 588.5C536.7 589.3 552.3 582.7 568.2 577.3C584 572 600 568 615.8 568.5C631.7 569 647.3 574 663.2 576.3C679 578.7 695 578.3 710.8 577.2C726.7 576 742.3 574 758 576.7C773.7 579.3 789.3 586.7 805.2 590.5C821 594.3 837 594.7 852.8 590.5C868.7 586.3 884.3 577.7 892.2 573.3L900 569L900 601L892.2 601C884.3 601 868.7 601 852.8 601C837 601 821 601 805.2 601C789.3 601 773.7 601 758 601C742.3 601 726.7 601 710.8 601C695 601 679 601 663.2 601C647.3 601 631.7 601 615.8 601C600 601 584 601 568.2 601C552.3 601 536.7 601 521 601C505.3 601 489.7 601 473.8 601C458 601 442 601 426.2 601C410.3 601 394.7 601 379 601C363.3 601 347.7 601 331.8 601C316 601 300 601 284.2 601C268.3 601 252.7 601 236.8 601C221 601 205 601 189.2 601C173.3 601 157.7 601 142 601C126.3 601 110.7 601 94.8 601C79 601 63 601 47.2 601C31.3 601 15.7 601 7.8 601L0 601Z" fill="#F3F7F6" stroke-linecap="round" stroke-linejoin="miter"></path></svg>